<mxfile host="app.diagrams.net" modified="2023-05-24T06:37:23.387Z" agent="Mozilla/5.0 (Windows NT 10.0; Win64; x64) AppleWebKit/537.36 (KHTML, like Gecko) Chrome/103.0.0.0 Safari/537.36" version="21.3.2" etag="Na-1t34jhIY21KJ3FhE-" type="github">
  <diagram name="第 1 页" id="HNv0HmyHTHY9FFPyV_hR">
    <mxGraphModel>
      <root>
        <mxCell id="0" />
        <mxCell id="1" parent="0" />
      </root>
    </mxGraphModel>
  </diagram>
</mxfile>
